<svg width="72" height="72" viewBox="0 0 72 72" fill="none" xmlns="http://www.w3.org/2000/svg">
<circle cx="36" cy="36" r="36" fill="#1B3F58"/>
<path d="M45.3333 34.6683H26.6667C25.1939 34.6683 24 35.8622 24 37.3349V46.6683C24 48.141 25.1939 49.3349 26.6667 49.3349H45.3333C46.8061 49.3349 48 48.141 48 46.6683V37.3349C48 35.8622 46.8061 34.6683 45.3333 34.6683Z" stroke="white" stroke-width="2.5" stroke-linecap="round" stroke-linejoin="round"/>
<path d="M29.333 34.6683V29.3349C29.333 27.5668 30.0354 25.8711 31.2856 24.6209C32.5359 23.3707 34.2316 22.6683 35.9997 22.6683C37.7678 22.6683 39.4635 23.3707 40.7137 24.6209C41.964 25.8711 42.6663 27.5668 42.6663 29.3349V34.6683" stroke="white" stroke-width="2.5" stroke-linecap="round" stroke-linejoin="round"/>
</svg>
